# xmcd
#
# Track frame offsets:
#	150
#	20564
#	45565
#	71917
#	99032
#	120378
#	138336
#	161400
#	178369
#	206729
#
# Disc length: 2977 seconds
#
# Revision: 1
# Processed by: cddbd v1.5.2PL0 Copyright (c) Steve Scherf et al.
# Submitted via: audiograbber 1.83.01
#
DISCID=870b9f0a
DTITLE=Rob Berry - Cuttin' Stone
DYEAR=2013
DGENRE=Blues
TTITLE0=Devil Juice
TTITLE1=For Your Love
TTITLE2=Cuttin' Stone
TTITLE3=Can't Make You Love Me
TTITLE4=Willy's Revenge
TTITLE5=Woah Baby
TTITLE6=Diving Down
TTITLE7=What I Mean
TTITLE8=Still Got the Blues
TTITLE9=Jam in E
EXTD=
EXTT0=
EXTT1=
EXTT2=
EXTT3=
EXTT4=
EXTT5=
EXTT6=
EXTT7=
EXTT8=
EXTT9=
PLAYORDER=
